<mxfile host="app.diagrams.net" agent="Mozilla/5.0 (Windows NT 10.0; Win64; x64) AppleWebKit/537.36 (KHTML, like Gecko) Chrome/138.0.0.0 Safari/537.36" version="28.0.7">
  <diagram name="Página-1" id="AjHsHZA4RZLIdT_A6NNx">
    <mxGraphModel dx="1426" dy="777" grid="1" gridSize="10" guides="1" tooltips="1" connect="1" arrows="1" fold="1" page="1" pageScale="1" pageWidth="3300" pageHeight="4681" math="0" shadow="0">
      <root>
        <mxCell id="0" />
        <mxCell id="1" parent="0" />
        <mxCell id="Fu_6RA36NM9dRwlMUgS--1" value="Login" style="shape=umlFrame;whiteSpace=wrap;html=1;pointerEvents=0;" vertex="1" parent="1">
          <mxGeometry x="450" y="340" width="780" height="430" as="geometry" />
        </mxCell>
        <mxCell id="Fu_6RA36NM9dRwlMUgS--2" value="" style="shape=umlLifeline;perimeter=lifelinePerimeter;whiteSpace=wrap;html=1;container=1;dropTarget=0;collapsible=0;recursiveResize=0;outlineConnect=0;portConstraint=eastwest;newEdgeStyle={&quot;curved&quot;:0,&quot;rounded&quot;:0};participant=umlActor;" vertex="1" parent="1">
          <mxGeometry x="550" y="380" width="20" height="360" as="geometry" />
        </mxCell>
        <mxCell id="Fu_6RA36NM9dRwlMUgS--3" value="" style="html=1;points=[[0,0,0,0,5],[0,1,0,0,-5],[1,0,0,0,5],[1,1,0,0,-5]];perimeter=orthogonalPerimeter;outlineConnect=0;targetShapes=umlLifeline;portConstraint=eastwest;newEdgeStyle={&quot;curved&quot;:0,&quot;rounded&quot;:0};" vertex="1" parent="Fu_6RA36NM9dRwlMUgS--2">
          <mxGeometry x="5" y="80" width="10" height="250" as="geometry" />
        </mxCell>
        <mxCell id="Fu_6RA36NM9dRwlMUgS--4" value="Front End" style="shape=umlLifeline;perimeter=lifelinePerimeter;whiteSpace=wrap;html=1;container=1;dropTarget=0;collapsible=0;recursiveResize=0;outlineConnect=0;portConstraint=eastwest;newEdgeStyle={&quot;curved&quot;:0,&quot;rounded&quot;:0};" vertex="1" parent="1">
          <mxGeometry x="790" y="380" width="100" height="360" as="geometry" />
        </mxCell>
        <mxCell id="Fu_6RA36NM9dRwlMUgS--5" value="" style="html=1;points=[[0,0,0,0,5],[0,1,0,0,-5],[1,0,0,0,5],[1,1,0,0,-5]];perimeter=orthogonalPerimeter;outlineConnect=0;targetShapes=umlLifeline;portConstraint=eastwest;newEdgeStyle={&quot;curved&quot;:0,&quot;rounded&quot;:0};" vertex="1" parent="Fu_6RA36NM9dRwlMUgS--4">
          <mxGeometry x="45" y="80" width="10" height="80" as="geometry" />
        </mxCell>
        <mxCell id="Fu_6RA36NM9dRwlMUgS--6" value="" style="html=1;points=[[0,0,0,0,5],[0,1,0,0,-5],[1,0,0,0,5],[1,1,0,0,-5]];perimeter=orthogonalPerimeter;outlineConnect=0;targetShapes=umlLifeline;portConstraint=eastwest;newEdgeStyle={&quot;curved&quot;:0,&quot;rounded&quot;:0};" vertex="1" parent="Fu_6RA36NM9dRwlMUgS--4">
          <mxGeometry x="45" y="190" width="10" height="130" as="geometry" />
        </mxCell>
        <mxCell id="Fu_6RA36NM9dRwlMUgS--7" value="Back End" style="shape=umlLifeline;perimeter=lifelinePerimeter;whiteSpace=wrap;html=1;container=1;dropTarget=0;collapsible=0;recursiveResize=0;outlineConnect=0;portConstraint=eastwest;newEdgeStyle={&quot;curved&quot;:0,&quot;rounded&quot;:0};" vertex="1" parent="1">
          <mxGeometry x="990" y="380" width="100" height="360" as="geometry" />
        </mxCell>
        <mxCell id="Fu_6RA36NM9dRwlMUgS--8" style="edgeStyle=orthogonalEdgeStyle;rounded=0;orthogonalLoop=1;jettySize=auto;html=1;curved=0;exitX=0;exitY=0;exitDx=0;exitDy=5;exitPerimeter=0;" edge="1" parent="Fu_6RA36NM9dRwlMUgS--7" source="Fu_6RA36NM9dRwlMUgS--9">
          <mxGeometry relative="1" as="geometry">
            <mxPoint x="45.333333333333485" y="204.66666666666674" as="targetPoint" />
          </mxGeometry>
        </mxCell>
        <mxCell id="Fu_6RA36NM9dRwlMUgS--9" value="" style="html=1;points=[[0,0,0,0,5],[0,1,0,0,-5],[1,0,0,0,5],[1,1,0,0,-5]];perimeter=orthogonalPerimeter;outlineConnect=0;targetShapes=umlLifeline;portConstraint=eastwest;newEdgeStyle={&quot;curved&quot;:0,&quot;rounded&quot;:0};" vertex="1" parent="Fu_6RA36NM9dRwlMUgS--7">
          <mxGeometry x="45" y="200" width="10" height="80" as="geometry" />
        </mxCell>
        <mxCell id="Fu_6RA36NM9dRwlMUgS--10" value="" style="html=1;points=[[0,0,0,0,5],[0,1,0,0,-5],[1,0,0,0,5],[1,1,0,0,-5]];perimeter=orthogonalPerimeter;outlineConnect=0;targetShapes=umlLifeline;portConstraint=eastwest;newEdgeStyle={&quot;curved&quot;:0,&quot;rounded&quot;:0};" vertex="1" parent="Fu_6RA36NM9dRwlMUgS--7">
          <mxGeometry x="55" y="220" width="10" height="40" as="geometry" />
        </mxCell>
        <mxCell id="Fu_6RA36NM9dRwlMUgS--11" value="5. Verifica as informações" style="html=1;align=left;spacingLeft=2;endArrow=block;rounded=0;edgeStyle=orthogonalEdgeStyle;curved=0;rounded=0;" edge="1" parent="Fu_6RA36NM9dRwlMUgS--7" target="Fu_6RA36NM9dRwlMUgS--10">
          <mxGeometry relative="1" as="geometry">
            <mxPoint x="60" y="210" as="sourcePoint" />
            <Array as="points">
              <mxPoint x="90" y="230" />
            </Array>
          </mxGeometry>
        </mxCell>
        <mxCell id="Fu_6RA36NM9dRwlMUgS--12" value="1. Usuário clica no botão de login" style="html=1;verticalAlign=bottom;endArrow=block;curved=0;rounded=0;entryX=0;entryY=0;entryDx=0;entryDy=5;entryPerimeter=0;" edge="1" parent="1" source="Fu_6RA36NM9dRwlMUgS--2" target="Fu_6RA36NM9dRwlMUgS--5">
          <mxGeometry relative="1" as="geometry">
            <mxPoint x="565" y="465" as="sourcePoint" />
            <mxPoint x="790" y="465" as="targetPoint" />
          </mxGeometry>
        </mxCell>
        <mxCell id="Fu_6RA36NM9dRwlMUgS--13" value="2. Exibe tela de login" style="html=1;verticalAlign=bottom;endArrow=open;dashed=1;endSize=8;curved=0;rounded=0;exitX=0;exitY=1;exitDx=0;exitDy=-5;exitPerimeter=0;" edge="1" parent="1" source="Fu_6RA36NM9dRwlMUgS--5" target="Fu_6RA36NM9dRwlMUgS--2">
          <mxGeometry relative="1" as="geometry">
            <mxPoint x="550" y="535" as="targetPoint" />
            <mxPoint x="790" y="535" as="sourcePoint" />
          </mxGeometry>
        </mxCell>
        <mxCell id="Fu_6RA36NM9dRwlMUgS--14" value="3. Insere informações (email e senha)" style="html=1;verticalAlign=bottom;endArrow=block;curved=0;rounded=0;entryX=0;entryY=0;entryDx=0;entryDy=5;entryPerimeter=0;" edge="1" parent="1" source="Fu_6RA36NM9dRwlMUgS--2" target="Fu_6RA36NM9dRwlMUgS--6">
          <mxGeometry relative="1" as="geometry">
            <mxPoint x="570" y="575" as="sourcePoint" />
          </mxGeometry>
        </mxCell>
        <mxCell id="Fu_6RA36NM9dRwlMUgS--15" value="7. Exibe mensagem de &quot;Email Inválido&quot;" style="html=1;verticalAlign=bottom;endArrow=open;dashed=1;endSize=8;curved=0;rounded=0;exitX=0;exitY=1;exitDx=0;exitDy=-5;exitPerimeter=0;" edge="1" parent="1" source="Fu_6RA36NM9dRwlMUgS--6" target="Fu_6RA36NM9dRwlMUgS--3">
          <mxGeometry relative="1" as="geometry">
            <mxPoint x="875" y="645" as="targetPoint" />
            <mxPoint x="790" y="645" as="sourcePoint" />
          </mxGeometry>
        </mxCell>
        <mxCell id="Fu_6RA36NM9dRwlMUgS--16" value="4. Envia as informações" style="html=1;verticalAlign=bottom;endArrow=block;curved=0;rounded=0;entryX=0.5;entryY=0.071;entryDx=0;entryDy=0;entryPerimeter=0;" edge="1" parent="1" source="Fu_6RA36NM9dRwlMUgS--6" target="Fu_6RA36NM9dRwlMUgS--9">
          <mxGeometry relative="1" as="geometry">
            <mxPoint x="1120" y="615" as="sourcePoint" />
            <mxPoint x="1030" y="585" as="targetPoint" />
          </mxGeometry>
        </mxCell>
        <mxCell id="Fu_6RA36NM9dRwlMUgS--17" value="6 Retorna &quot;Email Inválido&quot;" style="html=1;verticalAlign=bottom;endArrow=open;dashed=1;endSize=8;curved=0;rounded=0;exitX=0.5;exitY=0.929;exitDx=0;exitDy=0;exitPerimeter=0;" edge="1" parent="1" source="Fu_6RA36NM9dRwlMUgS--9" target="Fu_6RA36NM9dRwlMUgS--4">
          <mxGeometry relative="1" as="geometry">
            <mxPoint x="1120" y="685" as="targetPoint" />
            <mxPoint x="1030" y="645" as="sourcePoint" />
          </mxGeometry>
        </mxCell>
        <mxCell id="Fu_6RA36NM9dRwlMUgS--18" value="Usuário" style="text;strokeColor=none;fillColor=none;spacingLeft=4;spacingRight=4;overflow=hidden;rotatable=0;points=[[0,0.5],[1,0.5]];portConstraint=eastwest;fontSize=12;whiteSpace=wrap;html=1;" vertex="1" parent="1">
          <mxGeometry x="525" y="350" width="70" height="30" as="geometry" />
        </mxCell>
        <mxCell id="Fu_6RA36NM9dRwlMUgS--19" value="Fluxo Alternativo: Login&lt;div&gt;caso de &quot;Email Invalido&quot;&lt;/div&gt;" style="text;strokeColor=none;fillColor=none;spacingLeft=4;spacingRight=4;overflow=hidden;rotatable=0;points=[[0,0.5],[1,0.5]];portConstraint=eastwest;fontSize=24;whiteSpace=wrap;html=1;fontStyle=1;align=center;" vertex="1" parent="1">
          <mxGeometry x="606.25" y="260" width="467.5" height="70" as="geometry" />
        </mxCell>
      </root>
    </mxGraphModel>
  </diagram>
</mxfile>
